#tb 0: 1/1
#media_type 0: video
#codec_id 0: fits
#dimensions 0: 72x36
#sar 0: 0/1
0,          0,          0,        1,     8640, 0xf6b9f643
0,          1,          1,        1,     8640, 0x250d77d9
0,          2,          2,        1,     8640, 0x652595e5
0,          3,          3,        1,     8640, 0x4b8e5963
0,          4,          4,        1,     8640, 0xd8d611ab
